HIERARCHY
ROOT Hips
{
  OFFSET 54.2096 95.7062 31.4457
  CHANNELS 6 Xposition Yposition Zposition Zrotation Xrotation Yrotation
  JOINT spine
  {
    OFFSET 0 7.96568 0.458067
    CHANNELS 3 Zrotation Xrotation Yrotation
    JOINT spine1
    {
      OFFSET 0 10.2431 0
      CHANNELS 3 Zrotation Xrotation Yrotation
      JOINT spine2
      {
        OFFSET 0 9.81475 0
        CHANNELS 3 Zrotation Xrotation Yrotation
        JOINT Neck
        {
          OFFSET 0 25.1986 1.20138
          CHANNELS 3 Zrotation Xrotation Yrotation
          JOINT Head
          {
            OFFSET 0 7.61315 0
            CHANNELS 3 Zrotation Xrotation Yrotation
            End Site
            {
              OFFSET 0 18.4281 -6.07733
            }
          }
        }
        JOINT RightShoulder
        {
          OFFSET -4.1327 10.5992 -0.575451
          CHANNELS 3 Zrotation Xrotation Yrotation
          JOINT RightArm
          {
            OFFSET 0 13.9018 0
            CHANNELS 3 Zrotation Xrotation Yrotation
            JOINT RightArmRoll
            {
              OFFSET 0 7.01788 0
              CHANNELS 3 Zrotation Xrotation Yrotation
              JOINT RightForeArm
              {
                OFFSET 0 20.4406 0
                CHANNELS 3 Zrotation Xrotation Yrotation
                JOINT RightForeArmRoll
                {
                  OFFSET 0 7.87515 0
                  CHANNELS 3 Zrotation Xrotation Yrotation
                  JOINT RightHand
                  {
                    OFFSET 0 15.8037 0
                    CHANNELS 3 Zrotation Xrotation Yrotation
                    End Site
                    {
                      OFFSET 0 0 0
                    }
                  }
                }
              }
            }
          }
        }
        JOINT LeftShoulder
        {
          OFFSET 4.1327 10.5992 -0.575451
          CHANNELS 3 Zrotation Xrotation Yrotation
          JOINT LeftArm
          {
            OFFSET 0 13.9018 0
            CHANNELS 3 Zrotation Xrotation Yrotation
            JOINT LeftArmRoll
            {
              OFFSET 0 7.01789 0
              CHANNELS 3 Zrotation Xrotation Yrotation
              JOINT LeftForeArm
              {
                OFFSET 0 20.4406 0
                CHANNELS 3 Zrotation Xrotation Yrotation
                JOINT LeftForeArmRoll
                {
                  OFFSET 0 7.87515 0
                  CHANNELS 3 Zrotation Xrotation Yrotation
                  JOINT LeftHand
                  {
                    OFFSET 0 15.8037 0
                    CHANNELS 3 Zrotation Xrotation Yrotation
                    End Site
                    {
                      OFFSET 0 0 0
                    }
                  }
                }
              }
            }
          }
        }
      }
    }
  }
  JOINT RightUpLeg
  {
    OFFSET -7.06048 -1.2947 -1.0861
    CHANNELS 3 Zrotation Xrotation Yrotation
    JOINT RightUpLegRoll
    {
      OFFSET 0 18.5308 0
      CHANNELS 3 Zrotation Xrotation Yrotation
      JOINT RightLeg
      {
        OFFSET 0 -22.9476 0
        CHANNELS 3 Zrotation Xrotation Yrotation
        JOINT RightLegRoll
        {
          OFFSET 0 23.0226 0
          CHANNELS 3 Zrotation Xrotation Yrotation
          JOINT RightFoot
          {
            OFFSET 0 19.1625 0
            CHANNELS 3 Zrotation Xrotation Yrotation
            JOINT RightToeBase
            {
              OFFSET 0 16.0188 0
              CHANNELS 3 Zrotation Xrotation Yrotation
              End Site
              {
                OFFSET 0.00678979 7.75782 -0.894207
              }
            }
          }
        }
      }
    }
  }
  JOINT LeftUpLeg
  {
    OFFSET 7.06048 -1.2947 -1.0861
    CHANNELS 3 Zrotation Xrotation Yrotation
    JOINT LeftUpLegRoll
    {
      OFFSET 0 18.5309 0
      CHANNELS 3 Zrotation Xrotation Yrotation
      JOINT LeftLeg
      {
        OFFSET 0 22.9475 0
        CHANNELS 3 Zrotation Xrotation Yrotation
        JOINT LeftLegRoll
        {
          OFFSET 0 23.2355 0
          CHANNELS 3 Zrotation Xrotation Yrotation
          JOINT LeftFoot
          {
            OFFSET 0 18.9496 0
            CHANNELS 3 Zrotation Xrotation Yrotation
            JOINT LeftToeBase
            {
              OFFSET 0 16.0188 0
              CHANNELS 3 Zrotation Xrotation Yrotation
              End Site
              {
                OFFSET -0.0304289 7.75781 -0.894207
              }
            }
          }
        }
      }
    }
  }
}
MOTION
Frames: 10
Frame Time: 0.00208333
53.5224 90.7083 15.5506 -0.677232 13.4139 5.41289 -0.167822 -0.956012 -0.273507 -0.338094 2.09157 -0.528209 -0.332076 3.73659 -0.522917 4.53798 -1.26117 -1.74533 -0.898637 -5.85611 -1.23538 67.5715 -3.38925 -2.80491 114.067 35.1327 5.84995 -3.54783e-006 8.23045e-007 -4.76957e-006 4.40684 0.0337526 -0.659979 -5.04119e-006 1.08032e-006 -3.105 8.02907 -4.95098 0.697459 -67.8849 -1.16321 1.688 -115.869 32.5616 -11.7779 -1.47445e-006 3.57187e-006 3.09055e-006 4.4619 -0.0323065 -0.515051 8.00942e-006 7.86084e-006 3.05978 -8.02966 -4.9509 -0.697294 169.231 38.7201 3.7717 180 1.52576e-005 179.299 176.113 33.5065 179.897 -4.57882e-006 -7.35185e-006 0.367836 -19.8788 71.2065 22.4871 8.1325 25.2354 -3.48256 -174.809 39.2478 -0.157237 4.57705e-006 1.05463e-005 -0.80474 -2.69573 -33.9361 -0.000320421 6.08397e-008 -3.05059e-006 -0.548969 21.2383 71.42 -22.8362 -8.13587 25.2245 3.49854 
53.5133 90.8065 15.6921 -0.694515 13.2441 5.40131 -0.1651 -0.969745 -0.273284 -0.332843 2.06409 -0.528103 -0.326818 3.70912 -0.522896 4.56797 -1.02783 -1.72778 -0.91092 -5.80024 -1.20484 67.5819 -3.39044 -2.80632 114.086 35.0543 6.11395 -3.54783e-006 8.23045e-007 -4.76957e-006 4.18161 0.0321016 -0.654986 -5.04119e-006 1.08032e-006 -3.10818 8.02907 -4.95098 0.697459 -67.9135 -1.13246 1.67515 -115.782 32.4006 -12.0046 -1.47445e-006 3.57187e-006 3.09055e-006 4.55095 -0.0328842 -0.522474 8.00942e-006 7.86084e-006 3.0602 -8.02966 -4.9509 -0.697294 169.389 38.2913 3.61271 180 1.52576e-005 179.295 176.143 33.203 179.887 -4.57882e-006 -7.35185e-006 0.367717 -19.9 71.1813 22.4642 8.1325 25.2354 -3.48256 -174.777 38.822 -0.165579 4.57705e-006 1.05463e-005 -0.808326 -2.6847 -33.6566 0.000904735 6.08397e-008 -3.05059e-006 -0.548939 21.2781 71.4043 -22.8239 -8.13567 25.2218 3.50219 
53.5091 90.8979 15.8136 -0.712063 13.0759 5.38911 -0.162487 -0.983611 -0.273074 -0.327803 2.03635 -0.527995 -0.321772 3.68138 -0.52287 4.5995 -0.793291 -1.71057 -0.923957 -5.74613 -1.17451 67.5951 -3.39155 -2.80791 114.101 34.9755 6.37601 -3.54783e-006 8.23045e-007 -4.76957e-006 3.96039 0.0304897 -0.648694 -5.04118e-006 1.08032e-006 -3.11127 8.02907 -4.95098 0.697459 -67.9399 -1.10229 1.66243 -115.696 32.2364 -12.2245 -1.47445e-006 3.57187e-006 3.09055e-006 4.63106 -0.0333857 -0.529578 8.00943e-006 7.86083e-006 3.06052 -8.02966 -4.9509 -0.697294 169.545 37.8647 3.45516 180 1.52576e-005 179.291 176.175 32.8998 179.876 -4.57882e-006 -7.35185e-006 0.367599 -19.9206 71.1555 22.4407 8.1325 25.2354 -3.48256 -174.744 38.3988 -0.175283 4.57705e-006 1.05463e-005 -0.811939 -2.6741 -33.3786 0.0018727 6.08397e-008 -3.05059e-006 -0.548953 21.3182 71.3884 -22.8114 -8.13547 25.2192 3.50567 
53.5075 90.9954 15.9536 -0.729651 12.909 5.37632 -0.159974 -0.997565 -0.272885 -0.32295 2.00844 -0.527907 -0.316913 3.65347 -0.52286 4.6317 -0.557517 -1.69369 -0.937363 -5.69408 -1.14446 67.6103 -3.39251 -2.80956 114.111 34.8958 6.63556 -3.54783e-006 8.23045e-007 -4.76957e-006 3.74355 0.0289209 -0.641329 -5.04119e-006 1.08032e-006 -3.11424 8.02907 -4.95098 0.697459 -67.9649 -1.07266 1.64987 -115.609 32.0692 -12.438 -1.47445e-006 3.57187e-006 3.09055e-006 4.70242 -0.0338163 -0.536283 8.00943e-006 7.86083e-006 3.06076 -8.02966 -4.9509 -0.697294 169.7 37.44 3.29951 180 1.52576e-005 179.286 176.207 32.5968 179.865 -4.57882e-006 -7.35185e-006 0.367485 -19.9406 71.1291 22.4166 8.1325 25.2354 -3.48256 -174.711 37.9785 -0.185692 4.57705e-006 1.05463e-005 -0.815574 -2.66362 -33.1024 0.00272757 6.08397e-008 -3.05059e-006 -0.548975 21.3579 71.3721 -22.7984 -8.1353 25.2169 3.50872 
53.4966 91.0845 16.0785 -0.747055 12.7434 5.36299 -0.157555 -1.01156 -0.272728 -0.318258 1.98044 -0.527861 -0.312215 3.62547 -0.52289 4.66371 -0.32047 -1.67715 -0.950754 -5.64439 -1.11479 67.6265 -3.39323 -2.81118 114.119 34.8149 6.89204 -3.54783e-006 8.23045e-007 -4.76957e-006 3.53141 0.027399 -0.633114 -5.04118e-006 1.08032e-006 -3.11711 8.02907 -4.95098 0.697459 -67.9892 -1.04352 1.63752 -115.522 31.8998 -12.645 -1.47445e-006 3.57187e-006 3.09055e-006 4.76518 -0.0341815 -0.542511 8.00942e-006 7.86084e-006 3.06094 -8.02966 -4.9509 -0.697294 169.852 37.017 3.14616 180 1.52576e-005 179.281 176.24 32.2941 179.854 -4.57882e-006 -7.35185e-006 0.367375 -19.9598 71.1023 22.392 8.1325 25.2354 -3.48256 -174.677 37.5609 -0.196167 4.57705e-006 1.05463e-005 -0.819224 -2.65292 -32.8287 0.00361158 6.08397e-008 -3.05059e-006 -0.548972 21.3962 71.3553 -22.7847 -8.13516 25.2151 3.51108 
53.4934 91.1798 16.2157 -0.764048 12.5787 5.34915 -0.155222 -1.02555 -0.27261 -0.313702 1.95245 -0.527881 -0.307652 3.59748 -0.522983 4.69466 -0.0821106 -1.66094 -0.963744 -5.59734 -1.08555 67.643 -3.39366 -2.81266 114.125 34.7325 7.14489 -3.54783e-006 8.23045e-007 -4.76957e-006 3.32432 0.0259282 -0.624273 -5.04119e-006 1.08032e-006 -3.11986 8.02907 -4.95098 0.697459 -68.0134 -1.01481 1.62543 -115.434 31.7284 -12.8457 -1.47445e-006 3.57187e-006 3.09055e-006 4.81952 -0.0344867 -0.548186 8.00943e-006 7.86084e-006 3.06105 -8.02966 -4.9509 -0.697294 170.002 36.5954 2.99555 180 1.52576e-005 179.277 176.273 31.9917 179.843 -4.57882e-006 -7.35185e-006 0.367271 -19.9782 71.0749 22.3668 8.1325 25.2354 -3.48256 -174.645 37.1459 -0.206082 4.57705e-006 1.05463e-005 -0.822885 -2.64171 -32.5579 0.00466523 6.08397e-008 -3.05059e-006 -0.548908 21.4326 71.3378 -22.7702 -8.13508 25.214 3.5125 
53.4533 91.2633 16.3058 -0.780406 12.4148 5.33485 -0.152968 -1.0395 -0.272542 -0.309258 1.92455 -0.527988 -0.3032 3.56958 -0.523163 4.72371 0.1576 -1.64508 -0.975946 -5.55324 -1.05682 67.6589 -3.39371 -2.81389 114.13 34.6482 7.39356 -3.54783e-006 8.23045e-007 -4.76957e-006 3.12262 0.0245122 -0.61503 -5.04119e-006 1.08032e-006 -3.1225 8.02907 -4.95098 0.697459 -68.0384 -0.986483 1.61364 -115.345 31.5556 -13.0403 -1.47445e-006 3.57187e-006 3.09055e-006 4.8656 -0.0347373 -0.553228 8.00942e-006 7.86083e-006 3.06112 -8.02966 -4.9509 -0.697294 170.148 36.175 2.8481 180 1.52576e-005 179.272 176.307 31.6897 179.831 -4.57882e-006 -7.35185e-006 0.367173 -19.9959 71.0472 22.3411 8.1325 25.2354 -3.48256 -174.614 36.7337 -0.214824 4.57705e-006 1.05463e-005 -0.826553 -2.62967 -32.2905 0.0060274 6.08397e-008 -3.05059e-006 -0.548748 21.4661 71.3195 -22.7546 -8.13507 25.2139 3.51271 
53.4537 91.3556 16.4455 -0.795902 12.2516 5.32013 -0.150784 -1.05335 -0.272533 -0.3049 1.89685 -0.528207 -0.298834 3.54187 -0.523451 4.74998 0.398701 -1.62955 -0.986974 -5.51236 -1.02869 67.6734 -3.3933 -2.81479 114.134 34.5618 7.63746 -3.54783e-006 8.23045e-007 -4.76957e-006 2.92666 0.023155 -0.605609 -5.04119e-006 1.08032e-006 -3.12501 8.02907 -4.95098 0.697459 -68.0647 -0.958494 1.60218 -115.254 31.3818 -13.2287 -1.47445e-006 3.57187e-006 3.09055e-006 4.9036 -0.0349387 -0.55756 8.00942e-006 7.86084e-006 3.06116 -8.02966 -4.9509 -0.697294 170.29 35.7555 2.70424 180 1.52575e-005 179.267 176.342 31.3882 179.82 -4.57882e-006 -7.35185e-006 0.367083 -20.0126 71.0191 22.3151 8.1325 25.2354 -3.48256 -174.584 36.3242 -0.221793 4.57705e-006 1.05463e-005 -0.830221 -2.61648 -32.0269 0.00783542 6.08397e-008 -3.05059e-006 -0.548458 21.4962 71.3003 -22.7376 -8.13514 25.2148 3.51147 
53.4905 91.4528 16.585 -0.810309 12.0889 5.30502 -0.148663 -1.06706 -0.27259 -0.300604 1.86941 -0.528558 -0.294528 3.51444 -0.523872 4.77262 0.64123 -1.61437 -0.99644 -5.47501 -1.00122 67.6856 -3.39238 -2.81524 114.138 34.4729 7.87605 -3.54783e-006 8.23045e-007 -4.76957e-006 2.73679 0.0218606 -0.596233 -5.04119e-006 1.08032e-006 -3.12739 8.02907 -4.95098 0.697459 -68.0932 -0.930793 1.59111 -115.161 31.2075 -13.4112 -1.47445e-006 3.57187e-006 3.09055e-006 4.93367 -0.0350964 -0.561103 8.00943e-006 7.86083e-006 3.06117 -8.02966 -4.9509 -0.697294 170.428 35.3367 2.56438 180 1.52575e-005 179.263 176.376 31.0871 179.809 -4.57882e-006 -7.35185e-006 0.367002 -20.0283 70.9907 22.2886 8.1325 25.2354 -3.48256 -174.557 35.9174 -0.226403 4.57705e-006 1.05463e-005 -0.833885 -2.60185 -31.7678 0.0102253 6.08397e-008 -3.05059e-006 -0.548004 21.5219 71.2801 -22.7191 -8.13531 25.217 3.5085 
53.4704 91.5389 16.7075 -0.823401 11.9264 5.28956 -0.146598 -1.08059 -0.272725 -0.296346 1.84235 -0.529065 -0.290257 3.48737 -0.524448 4.79077 0.885227 -1.59952 -1.00395 -5.44148 -0.97449 67.6947 -3.39085 -2.81515 114.143 34.3811 8.10874 -3.54783e-006 8.23045e-007 -4.76957e-006 2.55334 0.0206329 -0.587128 -5.04118e-006 1.08032e-006 -3.12964 8.02907 -4.95098 0.697459 -68.1245 -0.90333 1.58046 -115.065 31.0333 -13.5879 -1.47445e-006 3.57187e-006 3.09055e-006 4.956 -0.0352158 -0.56378 8.00942e-006 7.86083e-006 3.06116 -8.02966 -4.9509 -0.697294 170.561 34.9183 2.42891 180 1.52575e-005 179.258 176.411 30.7866 179.798 -4.57882e-006 -7.35185e-006 0.36693 -20.043 70.962 22.2617 8.1325 25.2354 -3.48256 -174.533 35.5133 -0.228075 4.57705e-006 1.05463e-005 -0.83754 -2.58546 -31.5136 0.0133316 6.08397e-008 -3.05059e-006 -0.547349 21.5426 71.2585 -22.6987 -8.13559 25.2207 3.50356 
